<svg width="156" height="113" viewBox="0 0 156 113" fill="none" xmlns="http://www.w3.org/2000/svg">
<path d="M155.967 5.76862H125.234L104.415 42.6463L85.2487 5.76862V60.9025L104.415 88.2869L125.234 60.9025V110.925H155.967V5.76862Z" fill="black"/>
<path d="M85.1564 67.3574V2H49.0341V71.3738C49.0341 71.3738 48.3193 74.9121 46.7765 76.4856C45.5953 77.6903 44.9955 78.4598 43.39 79.0414C41.9862 79.55 40.7496 79.7717 39.251 79.7717C37.7525 79.7717 36.55 79.4506 35.112 79.0414C33.9073 78.6986 32.1019 77.2158 32.1019 77.2158L30.2205 75.3902L28.7154 73.5646L26.0815 70.2784L2 90.7254L2.75255 92.9162L3.50509 94.0116L4.63391 95.4721L6.139 96.9326L7.6441 98.3931L9.52546 99.8536L11.4068 101.314L13.6645 102.775L16.2984 104.6L18.556 105.696L20.8137 106.791L23.0713 107.74L26.0815 108.982L28.7154 109.712L30.973 110.077L33.1114 110.443C33.1114 110.443 36.5357 110.807 40.0036 110.807C43.7663 110.807 43.7663 111.241 49.0341 110.807C54.302 110.374 57.5799 109.255 60.6986 108.251C62.8334 107.564 64.0851 106.791 66.3427 105.696L71.6105 103.14C81.0174 95.4721 85.1564 88.8998 85.1564 67.3574Z" fill="#FF0000"/>
<path d="M85.1564 67.3574V2H49.0341V71.3738C49.0341 71.3738 48.3193 74.9121 46.7765 76.4856C45.5953 77.6903 44.9955 78.4598 43.39 79.0414C41.9862 79.55 40.7496 79.7717 39.251 79.7717C37.7525 79.7717 36.55 79.4506 35.112 79.0414C33.9073 78.6986 32.1019 77.2158 32.1019 77.2158L30.2205 75.3902L28.7154 73.5646L26.0815 70.2784L2 90.7254L2.75255 92.9162L3.50509 94.0116L4.63391 95.4721L6.139 96.9326L7.6441 98.3931L9.52546 99.8536L11.4068 101.314L13.6645 102.775L16.2984 104.6L18.556 105.696L20.8137 106.791L23.0713 107.74L26.0815 108.982L28.7154 109.712L30.973 110.077L33.1114 110.443C33.1114 110.443 36.5357 110.807 40.0036 110.807C43.7663 110.807 43.7663 111.241 49.0341 110.807C54.302 110.374 57.5799 109.255 60.6986 108.251C62.8334 107.564 64.0851 106.791 66.3427 105.696L71.6105 103.14C81.0174 95.4721 85.1564 88.8998 85.1564 67.3574Z" fill="#FF0000"/>
<path d="M85.1564 67.3574V2H49.0341V71.3738C49.0341 71.3738 48.3193 74.9121 46.7765 76.4856C45.5953 77.6903 44.9955 78.4598 43.39 79.0414C41.9862 79.55 40.7496 79.7717 39.251 79.7717C37.7525 79.7717 36.55 79.4506 35.112 79.0414C33.9073 78.6986 32.1019 77.2158 32.1019 77.2158L30.2205 75.3902L28.7154 73.5646L26.0815 70.2784L2 90.7254L2.75255 92.9162L3.50509 94.0116L4.63391 95.4721L6.139 96.9326L7.6441 98.3931L9.52546 99.8536L11.4068 101.314L13.6645 102.775L16.2984 104.6L18.556 105.696L20.8137 106.791L23.0713 107.74L26.0815 108.982L28.7154 109.712L30.973 110.077L33.1114 110.443C33.1114 110.443 36.5357 110.807 40.0036 110.807C43.7663 110.807 43.7663 111.241 49.0341 110.807C54.302 110.374 57.5799 109.255 60.6986 108.251C62.8334 107.564 64.0851 106.791 66.3427 105.696L71.6105 103.14C81.0174 95.4721 85.1564 88.8998 85.1564 67.3574Z" stroke="#FF0000" stroke-width="3"/>
</svg>
