<svg width="94" height="75" viewBox="0 0 94 75" fill="none" xmlns="http://www.w3.org/2000/svg">
<g clip-path="url(#clip0)">
<path d="M93.9802 3.82874H75.4616L62.9168 28.3051L51.3679 3.82874V40.422L62.9168 58.5975L75.4616 40.422V73.6228H93.9802V3.82874Z" fill="white"/>
<path d="M51.3122 44.7063V1.32745H29.5462V47.372C29.5462 47.372 29.1155 49.7204 28.1858 50.7648C27.4741 51.5644 27.1127 52.0751 26.1453 52.4611C25.2994 52.7987 24.5543 52.9458 23.6513 52.9458C22.7483 52.9458 22.0237 52.7327 21.1572 52.4611C20.4313 52.2336 19.3435 51.2494 19.3435 51.2494L18.2098 50.0378L17.3029 48.8261L15.7158 46.645L1.20514 60.216L1.6586 61.6701L2.11205 62.3971L2.79224 63.3665L3.69915 64.3358L4.60607 65.3052L5.73971 66.2745L6.87334 67.2438L8.23375 68.2135L9.82084 69.4248L11.1812 70.1522L12.5416 70.879L13.9019 71.5089L15.7158 72.3332L17.3029 72.8177L18.6632 73.06L19.9517 73.3029C19.9517 73.3029 22.0151 73.5445 24.1047 73.5445C26.372 73.5445 26.372 73.8325 29.5462 73.5445C32.7204 73.2571 34.6956 72.5144 36.5748 71.848C37.8612 71.3921 38.6154 70.879 39.9757 70.1522L43.1499 68.4558C48.8182 63.3665 51.3122 59.0043 51.3122 44.7063Z" fill="#FF0000"/>
<path d="M51.3122 44.7063V1.32745H29.5462V47.372C29.5462 47.372 29.1155 49.7204 28.1858 50.7648C27.4741 51.5644 27.1127 52.0751 26.1453 52.4611C25.2994 52.7987 24.5543 52.9458 23.6513 52.9458C22.7483 52.9458 22.0237 52.7327 21.1572 52.4611C20.4313 52.2336 19.3435 51.2494 19.3435 51.2494L18.2098 50.0378L17.3029 48.8261L15.7158 46.645L1.20514 60.216L1.6586 61.6701L2.11205 62.3971L2.79224 63.3665L3.69915 64.3358L4.60607 65.3052L5.73971 66.2745L6.87334 67.2438L8.23375 68.2135L9.82084 69.4248L11.1812 70.1522L12.5416 70.879L13.9019 71.5089L15.7158 72.3332L17.3029 72.8177L18.6632 73.06L19.9517 73.3029C19.9517 73.3029 22.0151 73.5445 24.1047 73.5445C26.372 73.5445 26.372 73.8325 29.5462 73.5445C32.7204 73.2571 34.6956 72.5144 36.5748 71.848C37.8612 71.3921 38.6154 70.879 39.9757 70.1522L43.1499 68.4558C48.8182 63.3665 51.3122 59.0043 51.3122 44.7063Z" fill="#FF0000"/>
<path d="M51.3122 44.7063V1.32745H29.5462V47.372C29.5462 47.372 29.1155 49.7204 28.1858 50.7648C27.4741 51.5644 27.1127 52.0751 26.1453 52.4611C25.2994 52.7987 24.5543 52.9458 23.6513 52.9458C22.7483 52.9458 22.0237 52.7327 21.1572 52.4611C20.4313 52.2336 19.3435 51.2494 19.3435 51.2494L18.2098 50.0378L17.3029 48.8261L15.7158 46.645L1.20514 60.216L1.6586 61.6701L2.11205 62.3971L2.79224 63.3665L3.69915 64.3358L4.60607 65.3052L5.73971 66.2745L6.87334 67.2438L8.23375 68.2135L9.82084 69.4248L11.1812 70.1522L12.5416 70.879L13.9019 71.5089L15.7158 72.3332L17.3029 72.8177L18.6632 73.06L19.9518 73.3029C19.9518 73.3029 22.0151 73.5445 24.1047 73.5445C26.372 73.5445 26.372 73.8325 29.5462 73.5445C32.7204 73.2571 34.6956 72.5144 36.5748 71.848C37.8612 71.3921 38.6154 70.879 39.9757 70.1522L43.1499 68.4558C48.8182 63.3665 51.3122 59.0043 51.3122 44.7063Z" stroke="#FF0000" stroke-width="3"/>
</g>
<defs>
<clipPath id="clip0">
<rect width="94" height="75" fill="white"/>
</clipPath>
</defs>
</svg>
